<svg width="842" height="842" viewBox="0 0 842 842" fill="none" xmlns="http://www.w3.org/2000/svg">
<g clip-path="url(#clip0_11_2)">
<path d="M842 0H0V842H842V0Z" fill="white"/>
<path d="M407.528 84.2H380.584V111.144H407.528V84.2Z" fill="black"/>
<path d="M488.36 84.2H461.416V111.144H488.36V84.2Z" fill="black"/>
<path d="M515.304 84.2H488.36V111.144H515.304V84.2Z" fill="black"/>
<path d="M326.696 111.144H299.752V138.088H326.696V111.144Z" fill="black"/>
<path d="M353.64 111.144H326.696V138.088H353.64V111.144Z" fill="black"/>
<path d="M380.584 111.144H353.64V138.088H380.584V111.144Z" fill="black"/>
<path d="M461.416 111.144H434.472V138.088H461.416V111.144Z" fill="black"/>
<path d="M488.36 111.144H461.416V138.088H488.36V111.144Z" fill="black"/>
<path d="M542.248 111.144H515.304V138.088H542.248V111.144Z" fill="black"/>
<path d="M326.696 138.088H299.752V165.032H326.696V138.088Z" fill="black"/>
<path d="M380.584 138.088H353.64V165.032H380.584V138.088Z" fill="black"/>
<path d="M434.472 138.088H407.528V165.032H434.472V138.088Z" fill="black"/>
<path d="M461.416 138.088H434.472V165.032H461.416V138.088Z" fill="black"/>
<path d="M515.304 138.088H488.36V165.032H515.304V138.088Z" fill="black"/>
<path d="M542.248 138.088H515.304V165.032H542.248V138.088Z" fill="black"/>
<path d="M353.64 165.032H326.696V191.976H353.64V165.032Z" fill="black"/>
<path d="M407.528 165.032H380.584V191.976H407.528V165.032Z" fill="black"/>
<path d="M434.472 165.032H407.528V191.976H434.472V165.032Z" fill="black"/>
<path d="M461.416 165.032H434.472V191.976H461.416V165.032Z" fill="black"/>
<path d="M488.36 165.032H461.416V191.976H488.36V165.032Z" fill="black"/>
<path d="M515.304 165.032H488.36V191.976H515.304V165.032Z" fill="black"/>
<path d="M542.248 165.032H515.304V191.976H542.248V165.032Z" fill="black"/>
<path d="M326.696 191.976H299.752V218.92H326.696V191.976Z" fill="black"/>
<path d="M353.64 191.976H326.696V218.92H353.64V191.976Z" fill="black"/>
<path d="M461.416 191.976H434.472V218.92H461.416V191.976Z" fill="black"/>
<path d="M542.248 191.976H515.304V218.92H542.248V191.976Z" fill="black"/>
<path d="M326.696 218.92H299.752V245.864H326.696V218.92Z" fill="black"/>
<path d="M380.584 218.92H353.64V245.864H380.584V218.92Z" fill="black"/>
<path d="M515.304 218.92H488.36V245.864H515.304V218.92Z" fill="black"/>
<path d="M326.696 245.864H299.752V272.808H326.696V245.864Z" fill="black"/>
<path d="M380.584 245.864H353.64V272.808H380.584V245.864Z" fill="black"/>
<path d="M434.472 245.864H407.528V272.808H434.472V245.864Z" fill="black"/>
<path d="M488.36 245.864H461.416V272.808H488.36V245.864Z" fill="black"/>
<path d="M542.248 245.864H515.304V272.808H542.248V245.864Z" fill="black"/>
<path d="M326.696 272.808H299.752V299.752H326.696V272.808Z" fill="black"/>
<path d="M380.584 272.808H353.64V299.752H380.584V272.808Z" fill="black"/>
<path d="M434.472 272.808H407.528V299.752H434.472V272.808Z" fill="black"/>
<path d="M111.144 299.752H84.2V326.696H111.144V299.752Z" fill="black"/>
<path d="M138.088 299.752H111.144V326.696H138.088V299.752Z" fill="black"/>
<path d="M191.976 299.752H165.032V326.696H191.976V299.752Z" fill="black"/>
<path d="M272.808 299.752H245.864V326.696H272.808V299.752Z" fill="black"/>
<path d="M299.752 299.752H272.808V326.696H299.752V299.752Z" fill="black"/>
<path d="M407.528 299.752H380.584V326.696H407.528V299.752Z" fill="black"/>
<path d="M434.472 299.752H407.528V326.696H434.472V299.752Z" fill="black"/>
<path d="M488.36 299.752H461.416V326.696H488.36V299.752Z" fill="black"/>
<path d="M542.248 299.752H515.304V326.696H542.248V299.752Z" fill="black"/>
<path d="M596.136 299.752H569.192V326.696H596.136V299.752Z" fill="black"/>
<path d="M623.08 299.752H596.136V326.696H623.08V299.752Z" fill="black"/>
<path d="M650.024 299.752H623.08V326.696H650.024V299.752Z" fill="black"/>
<path d="M703.912 299.752H676.968V326.696H703.912V299.752Z" fill="black"/>
<path d="M730.856 299.752H703.912V326.696H730.856V299.752Z" fill="black"/>
<path d="M165.032 326.696H138.088V353.64H165.032V326.696Z" fill="black"/>
<path d="M218.92 326.696H191.976V353.64H218.92V326.696Z" fill="black"/>
<path d="M326.696 326.696H299.752V353.64H326.696V326.696Z" fill="black"/>
<path d="M353.64 326.696H326.696V353.64H353.64V326.696Z" fill="black"/>
<path d="M407.528 326.696H380.584V353.64H407.528V326.696Z" fill="black"/>
<path d="M434.472 326.696H407.528V353.64H434.472V326.696Z" fill="black"/>
<path d="M461.416 326.696H434.472V353.64H461.416V326.696Z" fill="black"/>
<path d="M488.36 326.696H461.416V353.64H488.36V326.696Z" fill="black"/>
<path d="M515.304 326.696H488.36V353.64H515.304V326.696Z" fill="black"/>
<path d="M542.248 326.696H515.304V353.64H542.248V326.696Z" fill="black"/>
<path d="M596.136 326.696H569.192V353.64H596.136V326.696Z" fill="black"/>
<path d="M650.024 326.696H623.08V353.64H650.024V326.696Z" fill="black"/>
<path d="M730.856 326.696H703.912V353.64H730.856V326.696Z" fill="black"/>
<path d="M111.144 353.64H84.2V380.584H111.144V353.64Z" fill="black"/>
<path d="M138.088 353.64H111.144V380.584H138.088V353.64Z" fill="black"/>
<path d="M191.976 353.64H165.032V380.584H191.976V353.64Z" fill="black"/>
<path d="M218.92 353.64H191.976V380.584H218.92V353.64Z" fill="black"/>
<path d="M272.808 353.64H245.864V380.584H272.808V353.64Z" fill="black"/>
<path d="M326.696 353.64H299.752V380.584H326.696V353.64Z" fill="black"/>
<path d="M515.304 353.64H488.36V380.584H515.304V353.64Z" fill="black"/>
<path d="M569.192 353.64H542.248V380.584H569.192V353.64Z" fill="black"/>
<path d="M596.136 353.64H569.192V380.584H596.136V353.64Z" fill="black"/>
<path d="M623.08 353.64H596.136V380.584H623.08V353.64Z" fill="black"/>
<path d="M676.968 353.64H650.024V380.584H676.968V353.64Z" fill="black"/>
<path d="M703.912 353.64H676.968V380.584H703.912V353.64Z" fill="black"/>
<path d="M111.144 380.584H84.2V407.528H111.144V380.584Z" fill="black"/>
<path d="M165.032 380.584H138.088V407.528H165.032V380.584Z" fill="black"/>
<path d="M245.864 380.584H218.92V407.528H245.864V380.584Z" fill="black"/>
<path d="M326.696 380.584H299.752V407.528H326.696V380.584Z" fill="black"/>
<path d="M353.64 380.584H326.696V407.528H353.64V380.584Z" fill="black"/>
<path d="M380.584 380.584H353.64V407.528H380.584V380.584Z" fill="black"/>
<path d="M407.528 380.584H380.584V407.528H407.528V380.584Z" fill="black"/>
<path d="M434.472 380.584H407.528V407.528H434.472V380.584Z" fill="black"/>
<path d="M488.36 380.584H461.416V407.528H488.36V380.584Z" fill="black"/>
<path d="M542.248 380.584H515.304V407.528H542.248V380.584Z" fill="black"/>
<path d="M569.192 380.584H542.248V407.528H569.192V380.584Z" fill="black"/>
<path d="M596.136 380.584H569.192V407.528H596.136V380.584Z" fill="black"/>
<path d="M623.08 380.584H596.136V407.528H623.08V380.584Z" fill="black"/>
<path d="M650.024 380.584H623.08V407.528H650.024V380.584Z" fill="black"/>
<path d="M757.8 380.584H730.856V407.528H757.8V380.584Z" fill="black"/>
<path d="M111.144 407.528H84.2V434.472H111.144V407.528Z" fill="black"/>
<path d="M245.864 407.528H218.92V434.472H245.864V407.528Z" fill="black"/>
<path d="M272.808 407.528H245.864V434.472H272.808V407.528Z" fill="black"/>
<path d="M326.696 407.528H299.752V434.472H326.696V407.528Z" fill="black"/>
<path d="M380.584 407.528H353.64V434.472H380.584V407.528Z" fill="black"/>
<path d="M461.416 407.528H434.472V434.472H461.416V407.528Z" fill="black"/>
<path d="M542.248 407.528H515.304V434.472H542.248V407.528Z" fill="black"/>
<path d="M596.136 407.528H569.192V434.472H596.136V407.528Z" fill="black"/>
<path d="M623.08 407.528H596.136V434.472H623.08V407.528Z" fill="black"/>
<path d="M703.912 407.528H676.968V434.472H703.912V407.528Z" fill="black"/>
<path d="M730.856 407.528H703.912V434.472H730.856V407.528Z" fill="black"/>
<path d="M757.8 407.528H730.856V434.472H757.8V407.528Z" fill="black"/>
<path d="M138.088 434.472H111.144V461.416H138.088V434.472Z" fill="black"/>
<path d="M245.864 434.472H218.92V461.416H245.864V434.472Z" fill="black"/>
<path d="M299.752 434.472H272.808V461.416H299.752V434.472Z" fill="black"/>
<path d="M407.528 434.472H380.584V461.416H407.528V434.472Z" fill="black"/>
<path d="M542.248 434.472H515.304V461.416H542.248V434.472Z" fill="black"/>
<path d="M596.136 434.472H569.192V461.416H596.136V434.472Z" fill="black"/>
<path d="M623.08 434.472H596.136V461.416H623.08V434.472Z" fill="black"/>
<path d="M650.024 434.472H623.08V461.416H650.024V434.472Z" fill="black"/>
<path d="M703.912 434.472H676.968V461.416H703.912V434.472Z" fill="black"/>
<path d="M730.856 434.472H703.912V461.416H730.856V434.472Z" fill="black"/>
<path d="M111.144 461.416H84.2V488.36H111.144V461.416Z" fill="black"/>
<path d="M191.976 461.416H165.032V488.36H191.976V461.416Z" fill="black"/>
<path d="M218.92 461.416H191.976V488.36H218.92V461.416Z" fill="black"/>
<path d="M245.864 461.416H218.92V488.36H245.864V461.416Z" fill="black"/>
<path d="M272.808 461.416H245.864V488.36H272.808V461.416Z" fill="black"/>
<path d="M299.752 461.416H272.808V488.36H299.752V461.416Z" fill="black"/>
<path d="M326.696 461.416H299.752V488.36H326.696V461.416Z" fill="black"/>
<path d="M353.64 461.416H326.696V488.36H353.64V461.416Z" fill="black"/>
<path d="M380.584 461.416H353.64V488.36H380.584V461.416Z" fill="black"/>
<path d="M434.472 461.416H407.528V488.36H434.472V461.416Z" fill="black"/>
<path d="M461.416 461.416H434.472V488.36H461.416V461.416Z" fill="black"/>
<path d="M488.36 461.416H461.416V488.36H488.36V461.416Z" fill="black"/>
<path d="M542.248 461.416H515.304V488.36H542.248V461.416Z" fill="black"/>
<path d="M596.136 461.416H569.192V488.36H596.136V461.416Z" fill="black"/>
<path d="M650.024 461.416H623.08V488.36H650.024V461.416Z" fill="black"/>
<path d="M676.968 461.416H650.024V488.36H676.968V461.416Z" fill="black"/>
<path d="M138.088 488.36H111.144V515.304H138.088V488.36Z" fill="black"/>
<path d="M191.976 488.36H165.032V515.304H191.976V488.36Z" fill="black"/>
<path d="M299.752 488.36H272.808V515.304H299.752V488.36Z" fill="black"/>
<path d="M326.696 488.36H299.752V515.304H326.696V488.36Z" fill="black"/>
<path d="M353.64 488.36H326.696V515.304H353.64V488.36Z" fill="black"/>
<path d="M434.472 488.36H407.528V515.304H434.472V488.36Z" fill="black"/>
<path d="M461.416 488.36H434.472V515.304H461.416V488.36Z" fill="black"/>
<path d="M488.36 488.36H461.416V515.304H488.36V488.36Z" fill="black"/>
<path d="M542.248 488.36H515.304V515.304H542.248V488.36Z" fill="black"/>
<path d="M596.136 488.36H569.192V515.304H596.136V488.36Z" fill="black"/>
<path d="M623.08 488.36H596.136V515.304H623.08V488.36Z" fill="black"/>
<path d="M111.144 515.304H84.2V542.248H111.144V515.304Z" fill="black"/>
<path d="M138.088 515.304H111.144V542.248H138.088V515.304Z" fill="black"/>
<path d="M165.032 515.304H138.088V542.248H165.032V515.304Z" fill="black"/>
<path d="M191.976 515.304H165.032V542.248H191.976V515.304Z" fill="black"/>
<path d="M218.92 515.304H191.976V542.248H218.92V515.304Z" fill="black"/>
<path d="M272.808 515.304H245.864V542.248H272.808V515.304Z" fill="black"/>
<path d="M380.584 515.304H353.64V542.248H380.584V515.304Z" fill="black"/>
<path d="M461.416 515.304H434.472V542.248H461.416V515.304Z" fill="black"/>
<path d="M542.248 515.304H515.304V542.248H542.248V515.304Z" fill="black"/>
<path d="M569.192 515.304H542.248V542.248H569.192V515.304Z" fill="black"/>
<path d="M596.136 515.304H569.192V542.248H596.136V515.304Z" fill="black"/>
<path d="M623.08 515.304H596.136V542.248H623.08V515.304Z" fill="black"/>
<path d="M650.024 515.304H623.08V542.248H650.024V515.304Z" fill="black"/>
<path d="M757.8 515.304H730.856V542.248H757.8V515.304Z" fill="black"/>
<path d="M326.696 542.248H299.752V569.192H326.696V542.248Z" fill="black"/>
<path d="M353.64 542.248H326.696V569.192H353.64V542.248Z" fill="black"/>
<path d="M407.528 542.248H380.584V569.192H407.528V542.248Z" fill="black"/>
<path d="M461.416 542.248H434.472V569.192H461.416V542.248Z" fill="black"/>
<path d="M542.248 542.248H515.304V569.192H542.248V542.248Z" fill="black"/>
<path d="M650.024 542.248H623.08V569.192H650.024V542.248Z" fill="black"/>
<path d="M326.696 569.192H299.752V596.136H326.696V569.192Z" fill="black"/>
<path d="M353.64 569.192H326.696V596.136H353.64V569.192Z" fill="black"/>
<path d="M380.584 569.192H353.64V596.136H380.584V569.192Z" fill="black"/>
<path d="M461.416 569.192H434.472V596.136H461.416V569.192Z" fill="black"/>
<path d="M542.248 569.192H515.304V596.136H542.248V569.192Z" fill="black"/>
<path d="M596.136 569.192H569.192V596.136H596.136V569.192Z" fill="black"/>
<path d="M650.024 569.192H623.08V596.136H650.024V569.192Z" fill="black"/>
<path d="M676.968 569.192H650.024V596.136H676.968V569.192Z" fill="black"/>
<path d="M730.856 569.192H703.912V596.136H730.856V569.192Z" fill="black"/>
<path d="M757.8 569.192H730.856V596.136H757.8V569.192Z" fill="black"/>
<path d="M380.584 596.136H353.64V623.08H380.584V596.136Z" fill="black"/>
<path d="M434.472 596.136H407.528V623.08H434.472V596.136Z" fill="black"/>
<path d="M461.416 596.136H434.472V623.08H461.416V596.136Z" fill="black"/>
<path d="M542.248 596.136H515.304V623.08H542.248V596.136Z" fill="black"/>
<path d="M650.024 596.136H623.08V623.08H650.024V596.136Z" fill="black"/>
<path d="M676.968 596.136H650.024V623.08H676.968V596.136Z" fill="black"/>
<path d="M703.912 596.136H676.968V623.08H703.912V596.136Z" fill="black"/>
<path d="M730.856 596.136H703.912V623.08H730.856V596.136Z" fill="black"/>
<path d="M757.8 596.136H730.856V623.08H757.8V596.136Z" fill="black"/>
<path d="M380.584 623.08H353.64V650.024H380.584V623.08Z" fill="black"/>
<path d="M407.528 623.08H380.584V650.024H407.528V623.08Z" fill="black"/>
<path d="M434.472 623.08H407.528V650.024H434.472V623.08Z" fill="black"/>
<path d="M461.416 623.08H434.472V650.024H461.416V623.08Z" fill="black"/>
<path d="M488.36 623.08H461.416V650.024H488.36V623.08Z" fill="black"/>
<path d="M515.304 623.08H488.36V650.024H515.304V623.08Z" fill="black"/>
<path d="M542.248 623.08H515.304V650.024H542.248V623.08Z" fill="black"/>
<path d="M569.192 623.08H542.248V650.024H569.192V623.08Z" fill="black"/>
<path d="M596.136 623.08H569.192V650.024H596.136V623.08Z" fill="black"/>
<path d="M623.08 623.08H596.136V650.024H623.08V623.08Z" fill="black"/>
<path d="M650.024 623.08H623.08V650.024H650.024V623.08Z" fill="black"/>
<path d="M703.912 623.08H676.968V650.024H703.912V623.08Z" fill="black"/>
<path d="M730.856 623.08H703.912V650.024H730.856V623.08Z" fill="black"/>
<path d="M326.696 650.024H299.752V676.968H326.696V650.024Z" fill="black"/>
<path d="M434.472 650.024H407.528V676.968H434.472V650.024Z" fill="black"/>
<path d="M461.416 650.024H434.472V676.968H461.416V650.024Z" fill="black"/>
<path d="M488.36 650.024H461.416V676.968H488.36V650.024Z" fill="black"/>
<path d="M515.304 650.024H488.36V676.968H515.304V650.024Z" fill="black"/>
<path d="M542.248 650.024H515.304V676.968H542.248V650.024Z" fill="black"/>
<path d="M623.08 650.024H596.136V676.968H623.08V650.024Z" fill="black"/>
<path d="M650.024 650.024H623.08V676.968H650.024V650.024Z" fill="black"/>
<path d="M353.64 676.968H326.696V703.912H353.64V676.968Z" fill="black"/>
<path d="M407.528 676.968H380.584V703.912H407.528V676.968Z" fill="black"/>
<path d="M434.472 676.968H407.528V703.912H434.472V676.968Z" fill="black"/>
<path d="M515.304 676.968H488.36V703.912H515.304V676.968Z" fill="black"/>
<path d="M596.136 676.968H569.192V703.912H596.136V676.968Z" fill="black"/>
<path d="M623.08 676.968H596.136V703.912H623.08V676.968Z" fill="black"/>
<path d="M676.968 676.968H650.024V703.912H676.968V676.968Z" fill="black"/>
<path d="M703.912 676.968H676.968V703.912H703.912V676.968Z" fill="black"/>
<path d="M757.8 676.968H730.856V703.912H757.8V676.968Z" fill="black"/>
<path d="M326.696 703.912H299.752V730.856H326.696V703.912Z" fill="black"/>
<path d="M407.528 703.912H380.584V730.856H407.528V703.912Z" fill="black"/>
<path d="M488.36 703.912H461.416V730.856H488.36V703.912Z" fill="black"/>
<path d="M569.192 703.912H542.248V730.856H569.192V703.912Z" fill="black"/>
<path d="M676.968 703.912H650.024V730.856H676.968V703.912Z" fill="black"/>
<path d="M730.856 703.912H703.912V730.856H730.856V703.912Z" fill="black"/>
<path d="M757.8 703.912H730.856V730.856H757.8V703.912Z" fill="black"/>
<path d="M326.696 730.856H299.752V757.8H326.696V730.856Z" fill="black"/>
<path d="M380.584 730.856H353.64V757.8H380.584V730.856Z" fill="black"/>
<path d="M434.472 730.856H407.528V757.8H434.472V730.856Z" fill="black"/>
<path d="M461.416 730.856H434.472V757.8H461.416V730.856Z" fill="black"/>
<path d="M515.304 730.856H488.36V757.8H515.304V730.856Z" fill="black"/>
<path d="M542.248 730.856H515.304V757.8H542.248V730.856Z" fill="black"/>
<path d="M569.192 730.856H542.248V757.8H569.192V730.856Z" fill="black"/>
<path d="M650.024 730.856H623.08V757.8H650.024V730.856Z" fill="black"/>
<path d="M676.968 730.856H650.024V757.8H676.968V730.856Z" fill="black"/>
<path d="M730.856 730.856H703.912V757.8H730.856V730.856Z" fill="black"/>
<path d="M757.8 730.856H730.856V757.8H757.8V730.856Z" fill="black"/>
<g clip-path="url(#clip1_11_2)">
<path d="M246.134 84.2003H219.189H192.245H192.245H165.302H138.358H111.414H84.4695V111.144V138.088V165.032V191.976V218.92V245.864V272.808H111.414H138.358H165.302H192.245H192.245H219.189H246.134H273.077V245.864V218.92V191.976V165.032V138.088V111.144V84.2003H246.134ZM246.134 138.088V165.032V191.976V218.92V245.864H219.189H192.245H192.245H165.302H138.358H111.414V218.92V191.976V165.032V138.088V111.144H138.358H165.302H192.245H192.245H219.189H246.134V138.088Z" fill="black"/>
</g>
<path d="M191.976 138.088H191.976H165.032H138.088V165.032V191.976V218.92H165.032H191.976H191.976H218.92V191.976V165.032V138.088H191.976Z" fill="black"/>
<g clip-path="url(#clip2_11_2)">
<path d="M731.126 84.2003H704.181H677.237H677.237H650.294H623.35H596.406H569.461V111.144V138.088V165.032V191.976V218.92V245.864V272.808H596.406H623.35H650.294H677.237H677.237H704.181H731.126H758.069V245.864V218.92V191.976V165.032V138.088V111.144V84.2003H731.126ZM731.126 138.088V165.032V191.976V218.92V245.864H704.181H677.237H677.237H650.294H623.35H596.406V218.92V191.976V165.032V138.088V111.144H623.35H650.294H677.237H677.237H704.181H731.126V138.088Z" fill="black"/>
</g>
<path d="M676.968 138.088H676.968H650.024H623.08V165.032V191.976V218.92H650.024H676.968H676.968H703.912V191.976V165.032V138.088H676.968Z" fill="black"/>
<g clip-path="url(#clip3_11_2)">
<path d="M246.134 569.192H219.189H192.245H192.245H165.302H138.358H111.414H84.4695V596.136V623.08V650.024V676.968V703.912V730.856V757.8H111.414H138.358H165.302H192.245H192.245H219.189H246.134H273.077V730.856V703.912V676.968V650.024V623.08V596.136V569.192H246.134ZM246.134 623.08V650.024V676.968V703.912V730.856H219.189H192.245H192.245H165.302H138.358H111.414V703.912V676.968V650.024V623.08V596.136H138.358H165.302H192.245H192.245H219.189H246.134V623.08Z" fill="black"/>
</g>
<path d="M191.976 623.08H191.976H165.032H138.088V650.024V676.968V703.912H165.032H191.976H191.976H218.92V676.968V650.024V623.08H191.976Z" fill="black"/>
</g>
<defs>
<clipPath id="clip0_11_2">
<rect width="842" height="842" fill="white"/>
</clipPath>
<clipPath id="clip1_11_2">
<rect width="188.608" height="188.608" fill="white" transform="translate(84.2 84.2)"/>
</clipPath>
<clipPath id="clip2_11_2">
<rect width="188.608" height="188.608" fill="white" transform="translate(569.192 84.2)"/>
</clipPath>
<clipPath id="clip3_11_2">
<rect width="188.608" height="188.608" fill="white" transform="translate(84.2 569.192)"/>
</clipPath>
</defs>
</svg>
